<?xml version="1.0" encoding="UTF-8"?>
<svg width="70px" height="68px" viewBox="0 0 70 68" version="1.1" xmlns="http://www.w3.org/2000/svg" xmlns:xlink="http://www.w3.org/1999/xlink">
    <title>1598CE99-CAAF-40AF-83EB-C193BC3F7066@2x</title>
    <g id="homepage" stroke="none" stroke-width="1" fill="none" fill-rule="evenodd">
        <g id="WIL_homepage" transform="translate(-140.000000, -1495.000000)">
            <g id="Group-45" transform="translate(141.000000, 1496.408304)">
                <polyline id="Stroke-1" stroke="#2D4195" stroke-width="2" points="55.8125472 64.186067 58.13807 64.186067 62.7891156 61.2849773 58.13807 58.37226 55.8125472 58.37226"></polyline>
                <g id="Group-8" transform="translate(13.953137, 58.372260)">
                    <polyline id="Fill-5" fill="#B8C3F1" points="43.0221718 0 0 0 0 5.813807 43.0221718 5.813807"></polyline>
                    <polyline id="Stroke-7" stroke="#2D4195" stroke-width="2" points="43.0221718 0 0 0 0 5.813807 43.0221718 5.813807"></polyline>
                </g>
                <line x1="55.8125472" y1="64.186067" x2="55.8125472" y2="58.37226" id="Stroke-9" stroke="#2A5082" stroke-width="2"></line>
                <path d="M12.7903754,58.37226 L10.4648526,58.37226 C9.18116402,58.37226 8.13932981,59.4140942 8.13932981,60.6977828 L8.13932981,61.8605442 C8.13932981,63.1442328 9.18116402,64.186067 10.4648526,64.186067 L12.7903754,64.186067" id="Stroke-11" stroke="#2D4195" stroke-width="2"></path>
                <path d="M6.97656841,44.4191232 C6.97656841,43.5958881 5.49869866,43.2563618 4.6510456,43.2563618 C2.08250567,43.2563618 0,45.3388675 0,47.9074074 L0,13.0245654 C0,10.4560254 2.08250567,8.37351978 4.6510456,8.37351978 C5.49869866,8.37351978 6.97656841,8.57351474 6.97656841,9.53628118 L6.97656841,44.4191232 Z" id="Fill-13" fill="#F1F2F4"></path>
                <path d="M6.97656841,44.4191232 C6.97656841,43.5958881 5.49869866,43.2563618 4.6510456,43.2563618 C2.08250567,43.2563618 0,45.3388675 0,47.9074074 L0,13.0245654 C0,10.4560254 2.08250567,8.37351978 4.6510456,8.37351978 C5.49869866,8.37351978 6.97656841,8.57351474 6.97656841,9.53628118 L6.97656841,44.4191232 Z" id="Stroke-15" stroke="#2D4195" stroke-width="2" stroke-linejoin="round"></path>
                <line x1="37.2083648" y1="14.1873268" x2="6.97656841" y2="14.1873268" id="Stroke-17" stroke="#2D4195" stroke-width="2"></line>
                <line x1="60.4635928" y1="14.1873268" x2="54.6497858" y2="14.1873268" id="Stroke-19" stroke="#2D4195" stroke-width="2"></line>
                <path d="M67.4401612,47.9074074 C67.4401612,50.4759473 65.3576556,52.558453 62.7891156,52.558453 L4.6510456,52.558453 C2.08250567,52.558453 0,50.4759473 0,47.9074074" id="Stroke-21" stroke="#2D4195" stroke-width="2"></path>
                <path d="M60.4635928,44.4191232 C60.4635928,43.5958881 61.9414626,43.2563618 62.7891156,43.2563618 C65.3576556,43.2563618 67.4401612,45.3388675 67.4401612,47.9074074 L67.4401612,13.0245654 C67.4401612,10.4560254 65.3576556,8.37351978 62.7891156,8.37351978 C61.9414626,8.37351978 60.4635928,8.57351474 60.4635928,9.53628118 L60.4635928,44.4191232 Z" id="Fill-23" fill="#F1F2F4"></path>
                <path d="M60.4635928,44.4191232 C60.4635928,43.5958881 61.9414626,43.2563618 62.7891156,43.2563618 C65.3576556,43.2563618 67.4401612,45.3388675 67.4401612,47.9074074 L67.4401612,13.0245654 C67.4401612,10.4560254 65.3576556,8.37351978 62.7891156,8.37351978 C61.9414626,8.37351978 60.4635928,8.57351474 60.4635928,9.53628118 L60.4635928,44.4191232 Z" id="Stroke-25" stroke="#2D4195" stroke-width="2" stroke-linejoin="round"></path>
                <polygon id="Fill-27" fill="#B8C3F1" points="11.627614 39.6942423 11.627614 40.9302576 53.4870244 40.9302576 53.4870244 0.233608592 52.1754296 0.233608592"></polygon>
                <polygon id="Stroke-29" stroke="#2D4195" stroke-width="2" points="11.627614 39.6942423 11.627614 40.9302576 53.4870244 40.9302576 53.4870244 0.233608592 52.1754296 0.233608592"></polygon>
                <line x1="46.510456" y1="37.4425548" x2="46.510456" y2="40.930839" id="Stroke-31" stroke="#2A5082" stroke-width="2"></line>
                <line x1="40.696649" y1="37.4425548" x2="40.696649" y2="40.930839" id="Stroke-33" stroke="#2A5082" stroke-width="2"></line>
                <line x1="34.882842" y1="37.4425548" x2="34.882842" y2="40.930839" id="Stroke-35" stroke="#2A5082" stroke-width="2"></line>
                <line x1="29.069035" y1="37.4425548" x2="29.069035" y2="40.930839" id="Stroke-37" stroke="#2A5082" stroke-width="2"></line>
                <line x1="23.255228" y1="37.4425548" x2="23.255228" y2="40.930839" id="Stroke-39" stroke="#2A5082" stroke-width="2"></line>
                <polygon id="Fill-41" fill="#FFFFFF" points="45.3476946 16.5128496 46.510456 16.5128496 46.510456 32.7915092 30.2317964 32.7915092 30.2317964 31.6287478"></polygon>
                <polygon id="Stroke-43" stroke="#2D4195" stroke-width="2" points="45.3476946 16.5128496 46.510456 16.5128496 46.510456 32.7915092 30.2317964 32.7915092 30.2317964 31.6287478"></polygon>
            </g>
        </g>
    </g>
</svg>