<?xml version="1.0" encoding="UTF-8"?>
<svg width="85px" height="59px" viewBox="0 0 85 59" version="1.1" xmlns="http://www.w3.org/2000/svg" xmlns:xlink="http://www.w3.org/1999/xlink">
    <title>DA17267D-66D7-4B5C-B663-2AC28CD6F03A@2x</title>
    <g id="homepage" stroke="none" stroke-width="1" fill="none" fill-rule="evenodd">
        <g id="WIL_homepage" transform="translate(-552.000000, -1112.000000)">
            <g id="Group-23" transform="translate(553.020376, 1113.552768)">
                <path d="M81.2909091,45.3818182 L0.327272727,45.3818182 L0.327272727,46.6971455 C0.327272727,51.3426 4.09274545,56 8.7382,56 L72.8799818,56 C77.5254364,56 81.2909091,51.3426 81.2909091,46.6971455 L81.2909091,45.3818182 Z" id="Fill-3" fill="#FFFFFF"></path>
                <path d="M81.2909091,45.3818182 L0.327272727,45.3818182 L0.327272727,46.6971455 C0.327272727,51.3426 4.09274545,56 8.7382,56 L72.8799818,56 C77.5254364,56 81.2909091,51.3426 81.2909091,46.6971455 L81.2909091,45.3818182 Z" id="Stroke-5" stroke="#2D4195" stroke-width="2"></path>
                <line x1="36.1636364" y1="50.6909091" x2="50.7636364" y2="50.6909091" id="Stroke-7" stroke="#2D4195" stroke-width="2"></line>
                <path d="M69.5470673,0.254545455 C73.1917582,0.254545455 75.9816855,3.02987273 75.9816855,6.45290909 L75.9816855,45.3818182 L6.96350364,45.3818182 L6.96350364,6.45290909 C6.96350364,2.91174545 9.16412182,0.254545455 12.8088127,0.254545455 L69.5470673,0.254545455 Z" id="Fill-9" fill="#FFFFFF"></path>
                <path d="M69.5470673,0.254545455 C73.1917582,0.254545455 75.9816855,3.02987273 75.9816855,6.45290909 L75.9816855,45.3818182 L6.96350364,45.3818182 L6.96350364,6.45290909 C6.96350364,2.91174545 9.16412182,0.254545455 12.8088127,0.254545455 L69.5470673,0.254545455 Z" id="Stroke-11" stroke="#2D4195" stroke-width="2"></path>
                <path d="M59.6164127,37.4181818 C59.1399218,35.2401273 58.2785218,33.2107273 57.1118491,31.3910364 L61.1812673,27.3216182 L55.5509764,21.69 L51.4815582,25.7607455 C49.6618673,24.5940727 47.6324673,23.7326727 45.4544127,23.2561818 L45.4544127,17.5090909 L37.4907764,17.5090909 L37.4907764,23.2561818 C35.3127218,23.7326727 33.2833218,24.5940727 31.4649582,25.7607455 L27.39554,21.6913273 L21.7639218,27.3229455 L25.83334,31.3910364 C24.6666673,33.2107273 23.8052673,35.2401273 23.3287764,37.4181818 L17.5816855,37.4181818 L17.5816855,41.4 L36.1635036,41.4 C36.1635036,38.4680545 38.5406491,36.0909091 41.4725945,36.0909091 C44.40454,36.0909091 46.7816855,38.4680545 46.7816855,41.4 L65.3635036,41.4 L65.3635036,37.4181818 L59.6164127,37.4181818 Z" id="Fill-13" fill="#B8C3F1"></path>
                <polyline id="Stroke-15" stroke="#2D4195" stroke-width="2" points="12.2727273 41.4 12.2727273 5.56363636 70.6727273 5.56363636 70.6727273 41.4"></polyline>
                <path d="M65.3636364,41.4 L65.3636364,37.4181818 L59.6165455,37.4181818 C59.1400545,35.2401273 58.2786545,33.2107273 57.1119818,31.3910364 L61.1814,27.3216182 L55.5497818,21.69 L51.4816909,25.7607455 C49.662,24.5940727 47.6326,23.7326727 45.4545455,23.2561818 L45.4545455,17.5090909 L37.4909091,17.5090909 L37.4909091,23.2561818 C35.3128545,23.7326727 33.2834545,24.5940727 31.4637636,25.7607455 L27.3956727,21.6913273 L21.7640545,27.3229455 L25.8334727,31.3910364 C24.6668,33.2107273 23.8054,35.2401273 23.3289091,37.4181818 L17.5818182,37.4181818 L17.5818182,41.4" id="Stroke-17" stroke="#2D4195" stroke-width="2"></path>
                <path d="M29.5272727,41.4 C29.5272727,34.8021273 34.8748545,29.4545455 41.4727273,29.4545455 C48.0706,29.4545455 53.4181818,34.8021273 53.4181818,41.4" id="Stroke-19" stroke="#2D4195" stroke-width="2"></path>
                <path d="M36.1636364,41.4 C36.1636364,38.4680545 38.5407818,36.0909091 41.4727273,36.0909091 C44.4046727,36.0909091 46.7818182,38.4680545 46.7818182,41.4" id="Stroke-21" stroke="#2D4195" stroke-width="2"></path>
            </g>
        </g>
    </g>
</svg>