<?xml version="1.0" encoding="UTF-8"?>
<svg width="28px" height="28px" viewBox="0 0 28 28" version="1.1" xmlns="http://www.w3.org/2000/svg" xmlns:xlink="http://www.w3.org/1999/xlink">
    <title>D7FC59A3-4FA7-400F-A025-E29A6BE62277</title>
    <defs>
        <polygon id="path-1" points="2.36602753e-05 0.190228614 26.5458825 0.190228614 26.5458825 26.7361111 2.36602753e-05 26.7361111"></polygon>
    </defs>
    <g id="homepage" stroke="none" stroke-width="1" fill="none" fill-rule="evenodd">
        <g id="WIL_homepage" transform="translate(-1047.000000, -3427.000000)">
            <g id="Group-6" transform="translate(1047.018519, 3427.000000)">
                <g id="Group-3" transform="translate(0.000000, 0.046374)">
                    <mask id="mask-2" fill="white">
                        <use xlink:href="#path-1"></use>
                    </mask>
                    <g id="Clip-2"></g>
                    <path d="M13.2729649,0.190228614 C20.6033914,0.190228614 26.5459062,6.13274336 26.5459062,13.4631699 C26.5459062,20.7935964 20.6033914,26.7361111 13.2729649,26.7361111 C5.94253841,26.7361111 2.36602753e-05,20.7935964 2.36602753e-05,13.4631699 C2.36602753e-05,6.13274336 5.94253841,0.190228614 13.2729649,0.190228614" id="Fill-1" fill="#2D4195" mask="url(#mask-2)"></path>
                </g>
                <path d="M6.59293572,20.0497173 L9.76459562,20.0497173 L9.76459562,10.5075283 L6.59293572,10.5075283 L6.59293572,20.0497173 Z M8.19970501,5.90797075 C7.11440819,5.90797075 6.40436332,6.62038164 6.40436332,7.55638213 C6.40436332,8.47250799 7.09382375,9.20550332 8.15806293,9.20550332 L8.17864737,9.20550332 C9.28523845,9.20550332 9.97327925,8.47250799 9.97327925,7.55638213 C9.95222161,6.62038164 9.28523845,5.90797075 8.19970501,5.90797075 L8.19970501,5.90797075 Z M21.2033923,14.5775688 L21.2033923,20.0497173 L18.030786,20.0497173 L18.030786,14.9443031 C18.030786,13.6623894 17.5727231,12.7869592 16.4240167,12.7869592 C15.5474035,12.7869592 15.0266409,13.3763367 14.796663,13.9470225 C14.7131422,14.1509741 14.6916114,14.4341876 14.6916114,14.7202403 L14.6916114,20.0494807 L11.5187684,20.0494807 C11.5187684,20.0494807 11.5613569,11.4025965 11.5187684,10.5075283 L14.691848,10.5075283 L14.691848,11.859713 C14.6854597,11.8703601 14.6764688,11.8807706 14.6707903,11.8909446 L14.691848,11.8909446 L14.691848,11.859713 C15.1134741,11.2109483 15.8653976,10.2834655 17.5511922,10.2834655 C19.6385017,10.2834655 21.2033923,11.6472437 21.2033923,14.5775688 L21.2033923,14.5775688 Z" id="Fill-4" fill="#F1F2F2"></path>
            </g>
        </g>
    </g>
</svg>