<?xml version="1.0" encoding="UTF-8"?>
<svg width="61px" height="65px" viewBox="0 0 61 65" version="1.1" xmlns="http://www.w3.org/2000/svg" xmlns:xlink="http://www.w3.org/1999/xlink">
    <title>7E016CBD-86E4-4B31-8A88-C471E7E8BB55@2x</title>
    <g id="homepage" stroke="none" stroke-width="1" fill="none" fill-rule="evenodd">
        <g id="WIL_homepage" transform="translate(-552.000000, -1503.000000)">
            <g id="Group-35" transform="translate(553.020376, 1504.408304)">
                <path d="M43.265625,17.625 L18.859375,17.625 L18.859375,62 L52.140625,62 L52.140625,42.0767344 L53.25,42.0767344 C55.8348437,42.0767344 57.6875,40.1785938 57.6875,37.59375 L57.6875,24.1902812 C57.6875,19.8004844 49.921875,17.625 43.265625,17.625" id="Fill-3" fill="#FFFFFF"></path>
                <path d="M12.203125,17.625 C8.04851562,17.625 0,19.8914531 0,24.28125 L0,37.6847188 C0,40.2695625 1.85265625,42.03125 4.4375,42.03125 L5.546875,42.03125 L5.546875,62 L18.859375,62 L18.859375,42.03125 L19.96875,42.03125 C22.5535937,42.03125 24.40625,40.2695625 24.40625,37.6847188 L24.40625,24.28125 C24.40625,19.8914531 16.3577344,17.625 12.203125,17.625" id="Fill-5" fill="#B8C3F1"></path>
                <path d="M5.546875,42.03125 L4.4375,42.03125 C1.85265625,42.03125 0,40.1785937 0,37.59375 L0,24.28125 C0,19.8914531 8.04851562,17.625 12.203125,17.625 C16.3577344,17.625 24.40625,19.8914531 24.40625,24.28125 L24.40625,37.59375 C24.40625,40.1785937 22.5535937,42.03125 19.96875,42.03125 L18.859375,42.03125" id="Stroke-7" stroke="#2D4195" stroke-width="2"></path>
                <path d="M12.203125,14.2827859 C15.3005,14.2827859 17.75,11.7489734 17.75,8.62275469 L17.75,6.73459844 C17.75,3.60948906 15.3005,1.07456719 12.203125,1.07456719 C9.10575,1.07456719 6.65625,3.60948906 6.65625,6.73459844 L6.65625,8.62275469 C6.65625,11.7489734 9.10575,14.2827859 12.203125,14.2827859" id="Fill-9" fill="#FFFFFF"></path>
                <path d="M12.203125,14.2827859 C15.3005,14.2827859 17.75,11.7489734 17.75,8.62275469 L17.75,6.73459844 C17.75,3.60948906 15.3005,1.07456719 12.203125,1.07456719 C9.10575,1.07456719 6.65625,3.60948906 6.65625,6.73459844 L6.65625,8.62275469 C6.65625,11.7489734 9.10575,14.2827859 12.203125,14.2827859 Z" id="Stroke-11" stroke="#2D4195" stroke-width="2"></path>
                <path d="M24.40625,17.625 L26.625,17.625 C33.28125,17.625 41.046875,19.8004844 41.046875,24.1902812 L41.046875,37.59375 C41.046875,40.1785937 39.1942187,42.0767344 36.609375,42.0767344 L35.5,42.0767344" id="Stroke-13" stroke="#2D4195" stroke-width="2" stroke-linecap="round"></path>
                <path d="M41.046875,17.625 L43.265625,17.625 C49.921875,17.625 57.6875,19.8004844 57.6875,24.1902812 L57.6875,37.59375 C57.6875,40.1785937 55.8348437,42.0767344 53.25,42.0767344 L52.140625,42.0767344" id="Stroke-15" stroke="#2D4195" stroke-width="2" stroke-linecap="round"></path>
                <line x1="35.5" y1="62" x2="35.5" y2="28.71875" id="Stroke-17" stroke="#2D4195" stroke-width="2"></line>
                <path d="M28.84375,14.1923719 C31.941125,14.1923719 34.390625,11.6585594 34.390625,8.53234063 L34.390625,6.64418438 C34.390625,3.51796563 31.941125,0.984153125 28.84375,0.984153125 C25.746375,0.984153125 23.296875,3.51796563 23.296875,6.64418438 L23.296875,8.53234063 C23.296875,11.6585594 25.746375,14.1923719 28.84375,14.1923719" id="Fill-19" fill="#FFFFFF"></path>
                <path d="M28.84375,14.1923719 C31.941125,14.1923719 34.390625,11.6585594 34.390625,8.53234063 L34.390625,6.64418438 C34.390625,3.51796563 31.941125,0.984153125 28.84375,0.984153125 C25.746375,0.984153125 23.296875,3.51796563 23.296875,6.64418438 L23.296875,8.53234063 C23.296875,11.6585594 25.746375,14.1923719 28.84375,14.1923719 Z" id="Stroke-21" stroke="#2D4195" stroke-width="2"></path>
                <line x1="52.140625" y1="62" x2="52.140625" y2="28.71875" id="Stroke-23" stroke="#2D4195" stroke-width="2"></line>
                <path d="M45.484375,14.1923719 C48.58175,14.1923719 51.03125,11.6585594 51.03125,8.53234063 L51.03125,6.64418438 C51.03125,3.51796563 48.58175,0.984153125 45.484375,0.984153125 C42.387,0.984153125 39.9375,3.51796563 39.9375,6.64418438 L39.9375,8.53234063 C39.9375,11.6585594 42.387,14.1923719 45.484375,14.1923719" id="Fill-25" fill="#FFFFFF"></path>
                <path d="M45.484375,14.1923719 C48.58175,14.1923719 51.03125,11.6585594 51.03125,8.53234063 L51.03125,6.64418438 C51.03125,3.51796563 48.58175,0.984153125 45.484375,0.984153125 C42.387,0.984153125 39.9375,3.51796563 39.9375,6.64418438 L39.9375,8.53234063 C39.9375,11.6585594 42.387,14.1923719 45.484375,14.1923719 Z" id="Stroke-27" stroke="#2D4195" stroke-width="2"></path>
                <line x1="18.859375" y1="62" x2="18.859375" y2="28.71875" id="Stroke-29" stroke="#2D4195" stroke-width="2"></line>
                <line x1="5.546875" y1="28.71875" x2="5.546875" y2="62" id="Stroke-31" stroke="#2D4195" stroke-width="2"></line>
                <line x1="12.203125" y1="40.921875" x2="12.203125" y2="62" id="Stroke-33" stroke="#2D4195" stroke-width="2"></line>
            </g>
        </g>
    </g>
</svg>