<?xml version="1.0" encoding="UTF-8"?>
<svg width="67px" height="80px" viewBox="0 0 67 80" version="1.1" xmlns="http://www.w3.org/2000/svg" xmlns:xlink="http://www.w3.org/1999/xlink">
    <title>431551E9-3A04-4D46-BCC3-2FA2B6E93F33@2x</title>
    <g id="homepage" stroke="none" stroke-width="1" fill="none" fill-rule="evenodd">
        <g id="WIL_homepage" transform="translate(-140.000000, -1096.000000)">
            <g id="Group-27" transform="translate(141.000000, 1097.552768)">
                <path d="M42.70448,9.91103 L37.18858,4.39643 L33.20278,8.38223 C31.42178,7.23953 29.89948,6.39583 27.29948,5.92913 L27.29948,0.30013 L23.39948,0.30013 L19.49948,0.30013 L19.49948,5.92913 C16.89948,6.39583 15.37848,7.23953 13.59618,8.38223 L9.61038,4.39643 L4.09578,9.91103 L8.08158,13.89683 C6.93888,15.67913 6.09518,17.20013 5.62848,19.80013 L-0.00052,19.80013 L-0.00052,27.60013 L5.62848,27.60013 C6.09518,30.20013 6.93888,31.72113 8.08158,33.50213 L4.09578,37.48793 L9.61168,43.00383 L13.59748,39.01803 C15.37848,40.16073 16.89948,41.00443 19.49948,41.47113 L19.49948,47.10013 L23.39948,47.10013" id="Stroke-3" stroke="#2D4195" stroke-width="2"></path>
                <path d="M23.4,35.4 C16.9377,35.4 11.7,30.1623 11.7,23.7 C11.7,17.2377 16.9377,12 23.4,12 L26,12" id="Stroke-5" stroke="#2D4195" stroke-width="2"></path>
                <path d="M23.4,28.9 C20.5283,28.9 18.2,26.5717 18.2,23.7 C18.2,20.8283 20.5283,18.5 23.4,18.5" id="Stroke-7" stroke="#2D4195" stroke-width="2"></path>
                <path d="M65,23.7 L65,19.8 C65,16.9283 62.6717,14.6 59.8,14.6 L32.5,14.6 C29.6283,14.6 27.3,16.9283 27.3,19.8 L27.3,23.7 L65,23.7 Z" id="Fill-9" fill="#B8C3F1"></path>
                <path d="M65,23.7 L65,19.8 C65,16.9283 62.6717,14.6 59.8,14.6 L32.5,14.6 C29.6283,14.6 27.3,16.9283 27.3,19.8 L27.3,23.7 L65,23.7 Z" id="Stroke-11" stroke="#2D4195" stroke-width="2"></path>
                <path d="M27.3,66.6 L27.3,71.8 C27.3,74.283 30.017,77 32.5,77 L59.8,77 C62.283,77 65,74.283 65,71.8 L65,66.6 L27.3,66.6 Z" id="Fill-13" fill="#B8C3F1"></path>
                <path d="M27.3,66.6 L27.3,71.8 C27.3,74.283 30.017,77 32.5,77 L59.8,77 C62.283,77 65,74.283 65,71.8 L65,66.6 L27.3,66.6 Z" id="Stroke-15" stroke="#2D4195" stroke-width="2"></path>
                <polygon id="Fill-17" fill="#FFFFFF" points="27.3 44.5 27.3 23.7 65 23.7 65 66.6 27.3 66.6"></polygon>
                <polyline id="Stroke-19" stroke="#2D4195" stroke-width="2" points="27.3 44.5 27.3 23.7 65 23.7 65 66.6 27.3 66.6 27.3 44.5"></polyline>
                <line x1="41.6" y1="71.8" x2="50.7" y2="71.8" id="Stroke-21" stroke="#2D4195" stroke-width="2"></line>
                <path d="M61.1,30.2 L58.0541,30.2 C57.7759,31.2153 57.3781,32.1773 56.8672,33.0704 L59.9391,36.1423 L55.3423,40.7378 L52.2704,37.6672 C51.3773,38.1781 50.4153,38.5759 49.4,38.8528 L49.4,43.2 L42.9,43.2 L42.9,38.8528 C41.8847,38.5759 40.9227,38.1781 40.0296,37.6672 L36.9577,40.7378 L32.3609,36.1423 L35.4328,33.0704 C34.9219,32.1773 34.5241,31.2153 34.2459,30.2 L31.2,30.2" id="Stroke-23" stroke="#2D4195" stroke-width="2"></path>
                <path d="M41.67241,26.3 C41.67241,28.8129 43.70951,30.85 46.22241,30.85 C48.73531,30.85 50.77241,28.8129 50.77241,26.3" id="Stroke-25" stroke="#2D4195" stroke-width="2"></path>
            </g>
        </g>
    </g>
</svg>