<?xml version="1.0" encoding="UTF-8"?>
<svg width="75px" height="80px" viewBox="0 0 75 80" version="1.1" xmlns="http://www.w3.org/2000/svg" xmlns:xlink="http://www.w3.org/1999/xlink">
    <title>97D788C0-A47C-41E5-8FF5-FC50AD3D74C1@2x</title>
    <g id="homepage" stroke="none" stroke-width="1" fill="none" fill-rule="evenodd">
        <g id="WIL_homepage" transform="translate(-963.000000, -1103.000000)">
            <g id="Group-44" transform="translate(964.979624, 1104.658304)">
                <path d="M48.5133128,0 C36.2853709,0 26.3737779,9.91297674 26.3737779,22.1395349 C26.3737779,34.366093 36.2853709,44.2790698 48.5133128,44.2790698 C60.7412547,44.2790698 70.6528477,34.366093 70.6528477,22.1395349 C70.6528477,9.91297674 60.7412547,0 48.5133128,0" id="Fill-4" fill="#FFFFFF"></path>
                <path d="M48.5133128,22.1395349 L48.5133128,31.0562326 C47.7328942,30.3533023 46.7089407,29.5867209 45.5742895,29.5867209 C43.1403244,29.5867209 41.1671384,31.5612907 41.1671384,33.9938721 C41.1671384,36.4292209 43.1403244,38.402407 45.5742895,38.402407 C46.7089407,38.402407 47.7328942,37.6372093 48.5133128,36.9328953 L48.5133128,40.7837907" id="Stroke-6" stroke="#2D4195" stroke-width="2" stroke-linejoin="round"></path>
                <path d="M70.6528477,22.1395349 L63.3066733,22.1395349 C64.0096035,22.9199535 64.7761849,23.943907 64.7761849,25.0785581 C64.7761849,27.5125233 62.8029988,29.4857093 60.36765,29.4857093 C57.9350686,29.4857093 55.9604988,27.5125233 55.9604988,25.0785581 C55.9604988,23.943907 56.7270802,22.9199535 57.4300105,22.1395349 L48.5133128,22.1395349" id="Stroke-8" stroke="#2D4195" stroke-width="2" stroke-linejoin="round"></path>
                <path d="M26.3737779,22.1395349 L35.2904756,22.1395349 C34.5875453,21.3591163 33.820964,20.3351628 33.820964,19.2005116 C33.820964,16.7665465 35.7955337,14.7933605 38.2281151,14.7933605 C40.663464,14.7933605 42.63665,16.7665465 42.63665,19.2005116 C42.63665,20.3351628 41.8700686,21.3591163 41.1671384,22.1395349 L48.5133128,22.1395349 L48.5133128,14.7933605 C49.2937314,15.4976744 50.3176849,16.2628721 51.452336,16.2628721 C53.8863012,16.2628721 55.8594872,14.289686 55.8594872,11.8543372 C55.8594872,9.42175581 53.8863012,7.44718605 51.452336,7.44718605 C50.3176849,7.44718605 49.2937314,8.21376744 48.5133128,8.91669767 L48.5133128,0 C36.2853709,0 26.3737779,9.91297674 26.3737779,22.1395349" id="Fill-10" fill="#B8C3F1"></path>
                <path d="M48.5133128,22.1395349 L48.5133128,14.7933605 C49.2937314,15.4976744 50.3176849,16.2628721 51.452336,16.2628721 C53.8863012,16.2628721 55.8594872,14.289686 55.8594872,11.8543372 C55.8594872,9.42175581 53.8863012,7.44718605 51.452336,7.44718605 C50.3176849,7.44718605 49.2937314,8.21376744 48.5133128,8.91669767 L48.5133128,0" id="Stroke-12" stroke="#2D4195" stroke-width="2" stroke-linejoin="round"></path>
                <path d="M26.3737779,22.1395349 L35.2904756,22.1395349 C34.5875453,21.3591163 33.820964,20.3351628 33.820964,19.2005116 C33.820964,16.7665465 35.7955337,14.7933605 38.2281151,14.7933605 C40.663464,14.7933605 42.63665,16.7665465 42.63665,19.2005116 C42.63665,20.3351628 41.8700686,21.3591163 41.1671384,22.1395349 L48.5133128,22.1395349" id="Stroke-14" stroke="#2D4195" stroke-width="2" stroke-linejoin="round"></path>
                <path d="M32.3167209,37.2334395 C28.6291047,33.2787651 26.3736395,27.9721953 26.3736395,22.1398116 C26.3736395,9.91186977 36.2852326,0.000276744186 48.5131744,0.000276744186 C60.7411163,0.000276744186 70.6527093,9.91186977 70.6527093,22.1398116 C70.6527093,25.2504163 70.0106628,28.2115791 68.8524884,30.8973814" id="Stroke-16" stroke="#2D4195" stroke-width="2" stroke-linejoin="round"></path>
                <path d="M62.0315744,41.9569093 L53.8925279,45.8174907 L53.4469698,45.9863047 C52.8699581,44.9582 51.8875163,44.278793 50.5204,44.278793 L42.2180744,44.278793 C40.3154581,44.278793 37.4220977,41.5113512 35.1306558,41.5113512 L26.9971442,41.5113512 C23.6526907,41.5113512 20.6638535,44.2497349 18.9812488,45.8188744 C16.3798535,48.418886 11.1521558,53.6714907 11.1521558,53.6714907 L23.8727023,66.4044907 C25.9524349,64.3261419 28.4002372,62.2671651 30.5242488,62.2671651 L47.1289,62.2671651 C49.721993,62.2671651 52.3012488,61.4715256 54.1332953,59.6394791 L67.9027023,45.8700721 L71.8158651,36.0857814 C69.431714,33.7016302 63.9881558,36.2490605 62.0315744,41.9569093" id="Fill-18" fill="#FFFFFF"></path>
                <path d="M36.0598244,52.5813953 L50.5197081,52.5813953 C52.8125337,52.5813953 54.0481965,50.7756395 54.0481965,48.4841977 L54.0481965,48.457907 C54.0481965,46.1636977 52.8125337,44.2790698 50.5197081,44.2790698 L42.2173826,44.2790698 C40.3147663,44.2790698 37.4214058,41.5116279 35.129964,41.5116279 L26.9964523,41.5116279 C23.6519988,41.5116279 20.6645453,44.2500116 18.980557,45.8177674 C16.3791616,48.4191628 11.1528477,53.6717674 11.1528477,53.6717674 L23.8720105,66.4047674 C25.951743,64.3264186 28.4009291,62.2674419 30.5249407,62.2674419 L47.1295919,62.2674419 C49.7213012,62.2674419 52.300557,61.4718023 54.1339872,59.6397558 L67.9033942,45.8703488 L71.816557,36.0860581 C69.4310221,33.7005233 63.9888477,36.2493372 62.0322663,41.957186 L53.8932198,45.8177674" id="Stroke-20" stroke="#2D4195" stroke-width="2" stroke-linecap="round"></path>
                <polygon id="Fill-22" fill="#B8C3F1" points="9.76912674 49.8139535 1.46680116 58.1162791 19.4551733 76.1046512 27.7561151 67.8023256"></polygon>
                <polygon id="Stroke-24" stroke="#2D4195" stroke-width="2" stroke-linejoin="round" points="9.76912674 49.8139535 1.46680116 58.1162791 19.4551733 76.1046512 27.7561151 67.8023256"></polygon>
                <line x1="11.9649535" y1="60.1871558" x2="9.19751163" y2="57.419714" id="Stroke-26" stroke="#2D4195" stroke-width="2" stroke-linecap="round"></line>
                <line x1="15.3040105" y1="23.5232558" x2="15.3040105" y2="26.2906977" id="Stroke-28" stroke="#B8C3F1" stroke-width="2"></line>
                <line x1="15.3040105" y1="29.0581395" x2="15.3040105" y2="31.8255814" id="Stroke-30" stroke="#B8C3F1" stroke-width="2"></line>
                <line x1="16.6877314" y1="27.6744186" x2="19.4551733" y2="27.6744186" id="Stroke-32" stroke="#B8C3F1" stroke-width="2"></line>
                <line x1="11.1528477" y1="27.6744186" x2="13.9202895" y2="27.6744186" id="Stroke-34" stroke="#B8C3F1" stroke-width="2"></line>
                <line x1="7.00168488" y1="16.6046512" x2="9.76912674" y2="19.372093" id="Stroke-36" stroke="#B8C3F1" stroke-width="2"></line>
                <line x1="0.0830802326" y1="9.68604651" x2="2.85052209" y2="12.4534884" id="Stroke-38" stroke="#B8C3F1" stroke-width="2"></line>
                <line x1="2.85052209" y1="16.6046512" x2="0.0830802326" y2="19.372093" id="Stroke-40" stroke="#B8C3F1" stroke-width="2"></line>
                <line x1="9.76912674" y1="9.68604651" x2="7.00168488" y2="12.4534884" id="Stroke-42" stroke="#B8C3F1" stroke-width="2"></line>
            </g>
        </g>
    </g>
</svg>