<?xml version="1.0" encoding="UTF-8"?>
<svg width="65px" height="72px" viewBox="0 0 65 72" version="1.1" xmlns="http://www.w3.org/2000/svg" xmlns:xlink="http://www.w3.org/1999/xlink">
    <title>CE6F0B12-94E0-4DD6-98D4-20F895D2501E@2x</title>
    <g id="homepage" stroke="none" stroke-width="1" fill="none" fill-rule="evenodd">
        <g id="WIL_homepage" transform="translate(-963.000000, -1496.000000)">
            <g id="Group-27" transform="translate(964.979624, 1496.408304)">
                <polygon id="Fill-3" fill="#FFFFFF" points="44.7672247 69.3224189 61.0218052 69.3224189 61.0218052 53.0678384 44.7672247 53.0678384"></polygon>
                <polygon id="Fill-5" fill="#FFFFFF" points="22.7074368 69.3224189 38.9620174 69.3224189 38.9620174 53.0678384 22.7074368 53.0678384"></polygon>
                <polygon id="Fill-6" fill="#FFFFFF" points="0.647648987 69.3224189 16.9022295 69.3224189 16.9022295 53.0678384 0.647648987 53.0678384"></polygon>
                <polygon id="Fill-7" fill="#FFFFFF" points="35.4784285 27.5249261 24.5750881 42.6184652 48.2498847 42.6184652 57.5382164 27.5249261"></polygon>
                <polyline id="Stroke-8" stroke="#2D4195" stroke-width="2" stroke-linecap="round" stroke-linejoin="round" points="38.9615529 62.3561701 38.9615529 69.3224189 22.7069724 69.3224189 22.7069724 53.0678384 35.4784285 53.0678384"></polyline>
                <polyline id="Stroke-9" stroke="#2D4195" stroke-width="2" stroke-linecap="round" stroke-linejoin="round" points="26.1900968 61.1951286 30.8342627 64.678253 40.1225944 53.0678384"></polyline>
                <polygon id="Stroke-10" stroke="#2D4195" stroke-width="2" stroke-linecap="round" stroke-linejoin="round" points="44.7672247 69.3224189 61.0218052 69.3224189 61.0218052 53.0678384 44.7672247 53.0678384"></polygon>
                <polyline id="Stroke-11" stroke="#2D4195" stroke-width="2" stroke-linecap="round" stroke-linejoin="round" points="16.9017651 62.3561701 16.9017651 69.3224189 0.647184571 69.3224189 0.647184571 53.0678384 13.4186407 53.0678384"></polyline>
                <polyline id="Stroke-12" stroke="#2D4195" stroke-width="2" stroke-linecap="round" stroke-linejoin="round" points="4.13030897 61.1951286 8.77447483 64.678253 18.0628066 53.0678384"></polyline>
                <path d="M25.0290554,41.4574237 L16.0507217,30.4832598 C15.1195664,29.3454392 13.7274777,28.6859676 12.2575992,28.6859676 C8.81511128,28.6859676 6.30726172,30.8269281 5.69539286,35.248174 C5.167119,39.0633562 4.13030897,47.2626311 4.13030897,47.2626311 L20.3848895,47.2626311 L29.6732212,47.2626311 C34.3173871,47.2626311 34.3173871,41.4574237 34.3173871,41.4574237 L25.0290554,41.4574237 Z" id="Fill-13" fill="#B8C3F1"></path>
                <polyline id="Stroke-14" stroke="#2D4195" stroke-width="2" stroke-linecap="round" stroke-linejoin="round" points="28.7644741 36.8132579 35.4787769 27.5249261 57.5385647 27.5249261 48.250233 42.6184652 38.9619013 42.6184652"></polyline>
                <line x1="14.5796822" y1="47.2626311" x2="58.6992579" y2="47.2626311" id="Stroke-15" stroke="#2D4195" stroke-width="2" stroke-linecap="round" stroke-linejoin="round"></line>
                <path d="M16.3212444,24.0418017 C12.5478596,24.0418017 9.9355163,21.1461643 9.9355163,17.5736397 L9.9355163,15.4164247 C9.9355163,11.8439001 12.5478596,8.94826268 16.3212444,8.94826268 C20.0946291,8.94826268 22.7069724,11.8439001 22.7069724,15.4164247 L22.7069724,17.5736397 C22.7069724,21.1461643 20.0946291,24.0418017 16.3212444,24.0418017" id="Fill-16" fill="#FFFFFF"></path>
                <path d="M16.3212444,24.0418017 C12.5478596,24.0418017 9.9355163,21.1461643 9.9355163,17.5736397 L9.9355163,15.4164247 C9.9355163,11.8439001 12.5478596,8.94826268 16.3212444,8.94826268 C20.0946291,8.94826268 22.7069724,11.8439001 22.7069724,15.4164247 L22.7069724,17.5736397 C22.7069724,21.1461643 20.0946291,24.0418017 16.3212444,24.0418017 Z" id="Stroke-17" stroke="#2D4195" stroke-width="2"></path>
                <path d="M13.4186407,39.1353408 L20.3848895,47.2626311 L29.6732212,47.2626311 C34.3173871,47.2626311 34.3173871,41.4574237 34.3173871,41.4574237 L25.0290554,41.4574237 L16.0507217,30.4832598 C15.1195664,29.3454392 13.7274777,28.6859676 12.2575992,28.6859676 C8.81511128,28.6859676 6.30726172,30.8269281 5.69539286,35.248174 C5.167119,39.0633562 4.13030897,47.2626311 4.13030897,47.2626311" id="Stroke-18" stroke="#2D4195" stroke-width="2" stroke-linecap="round"></path>
                <line x1="35.4784285" y1="13.5924285" x2="35.4784285" y2="15.9145115" id="Stroke-19" stroke="#BCC0C4" stroke-width="2"></line>
                <line x1="35.4784285" y1="18.2365944" x2="35.4784285" y2="20.5586773" id="Stroke-20" stroke="#BCC0C4" stroke-width="2"></line>
                <line x1="34.3173871" y1="17.0755529" x2="31.9953041" y2="17.0755529" id="Stroke-21" stroke="#BCC0C4" stroke-width="2"></line>
                <line x1="38.9615529" y1="17.0755529" x2="36.63947" y2="17.0755529" id="Stroke-22" stroke="#BCC0C4" stroke-width="2"></line>
                <line x1="40.1225944" y1="6.62617975" x2="37.8005115" y2="8.94826268" id="Stroke-23" stroke="#BCC0C4" stroke-width="2"></line>
                <line x1="45.9278017" y1="0.82097242" x2="43.6057188" y2="3.14305535" id="Stroke-24" stroke="#BCC0C4" stroke-width="2"></line>
                <line x1="43.6057188" y1="6.62617975" x2="45.9278017" y2="8.94826268" id="Stroke-25" stroke="#BCC0C4" stroke-width="2"></line>
                <line x1="37.8005115" y1="0.82097242" x2="40.1225944" y2="3.14305535" id="Stroke-26" stroke="#BCC0C4" stroke-width="2"></line>
            </g>
        </g>
    </g>
</svg>